<?xml version="1.0" encoding="us-ascii" standalone="no"?><svg xmlns="http://www.w3.org/2000/svg" xmlns:xlink="http://www.w3.org/1999/xlink" contentStyleType="text/css" height="416px" preserveAspectRatio="none" style="width:307px;height:416px;background:#FFFFFF;" version="1.1" viewBox="0 0 307 416" width="307px" zoomAndPan="magnify"><defs/><g><ellipse cx="260.1858" cy="159" fill="#222222" rx="10" ry="10" style="stroke:#222222;stroke-width:1.0;"/><g id="Lists"><rect fill="#F1F1F1" height="50" rx="12.5" ry="12.5" style="stroke:#181818;stroke-width:0.5;" width="53" x="116.6858" y="261"/><line style="stroke:#181818;stroke-width:0.5;" x1="116.6858" x2="169.6858" y1="287.2969" y2="287.2969"/><text fill="#000000" font-family="sans-serif" font-size="14" lengthAdjust="spacing" textLength="33" x="126.6858" y="278.9951">Lists</text></g><g id="Codes"><rect fill="#F1F1F1" height="50" rx="12.5" ry="12.5" style="stroke:#181818;stroke-width:0.5;" width="64" x="50.1862" y="134"/><line style="stroke:#181818;stroke-width:0.5;" x1="50.1862" x2="114.1862" y1="160.2969" y2="160.2969"/><text fill="#000000" font-family="sans-serif" font-size="14" lengthAdjust="spacing" textLength="44" x="60.1862" y="151.9951">Codes</text></g><ellipse cx="143.1858" cy="399" fill="none" rx="11" ry="11" style="stroke:#222222;stroke-width:1.0;"/><ellipse cx="143.1858" cy="399" fill="#222222" rx="6" ry="6" style="stroke:#222222;stroke-width:1.0;"/><g id="ReadText"><rect fill="#F1F1F1" height="50" rx="12.5" ry="12.5" style="stroke:#181818;stroke-width:0.5;" width="89" x="37.6862" y="7"/><line style="stroke:#181818;stroke-width:0.5;" x1="37.6862" x2="126.6862" y1="33.2969" y2="33.2969"/><text fill="#000000" font-family="sans-serif" font-size="14" lengthAdjust="spacing" textLength="69" x="47.6862" y="24.9951">ReadText</text></g><!--link *start* to Lists--><g id="link_*start*_Lists"><path d="M254.6148,167.311 C244.4708,180.479 222.1028,208.87 201.1858,231 C191.3578,241.399 184.3695,248.2097 174.2785,257.4427 " fill="none" id="*start*-to-Lists" style="stroke:#181818;stroke-width:1.0;"/><polygon fill="#181818" points="169.8518,261.493,179.192,258.3687,173.5407,258.1178,173.7916,252.4665,169.8518,261.493" style="stroke:#181818;stroke-width:1.0;"/><text fill="#000000" font-family="sans-serif" font-size="13" lengthAdjust="spacing" textLength="82" x="217.1858" y="227.0669">&lt;CodeLists&gt;</text></g><!--link Lists to Codes--><g id="link_Lists_Codes"><path d="M131.4608,260.973 C120.6708,238.861 107.3807,211.6282 96.579,189.4932 " fill="none" id="Lists-to-Codes" style="stroke:#181818;stroke-width:1.0;"/><polygon fill="#181818" points="93.9476,184.101,94.2998,193.9436,96.1404,188.5945,101.4895,190.4351,93.9476,184.101" style="stroke:#181818;stroke-width:1.0;"/><text fill="#000000" font-family="sans-serif" font-size="13" lengthAdjust="spacing" textLength="75" x="117.1858" y="227.0669">&lt;CodeList&gt;</text></g><!--link Codes to Lists--><g id="link_Codes_Lists"><path d="M49.9831,176.914 C28.3454,190.612 6,210.875 19.1862,231 C40.6769,263.799 80.9837,275.7708 110.5241,280.8368 " fill="none" id="Codes-to-Lists" style="stroke:#181818;stroke-width:1.0;"/><polygon fill="#181818" points="116.4378,281.851,108.2434,276.3873,111.5098,281.0059,106.8912,284.2722,116.4378,281.851" style="stroke:#181818;stroke-width:1.0;"/><text fill="#000000" font-family="sans-serif" font-size="13" lengthAdjust="spacing" textLength="79" x="20.1862" y="227.0669">&lt;/CodeList&gt;</text></g><!--link Lists to *end*--><g id="link_Lists_*end*"><path d="M143.1858,311.0853 C143.1858,335.0597 143.1858,364.6954 143.1858,381.9353 " fill="none" id="Lists-to-*end*" style="stroke:#181818;stroke-width:1.0;"/><polygon fill="#181818" points="143.1858,387.9353,147.1858,378.9353,143.1858,382.9353,139.1858,378.9353,143.1858,387.9353" style="stroke:#181818;stroke-width:1.0;"/><text fill="#000000" font-family="sans-serif" font-size="13" lengthAdjust="spacing" textLength="86" x="144.1858" y="354.0669">&lt;/CodeLists&gt;</text></g><!--link Codes to ReadText--><g id="link_Codes_ReadText"><path d="M90.278,133.798 C93.9268,120.124 97.0469,102.679 95.1862,87 C94.0157,77.137 93.1755,72.2803 90.8049,63.0523 " fill="none" id="Codes-to-ReadText" style="stroke:#181818;stroke-width:1.0;"/><polygon fill="#181818" points="89.312,57.241,87.6771,66.9532,90.5561,62.0838,95.4255,64.9627,89.312,57.241" style="stroke:#181818;stroke-width:1.0;"/><text fill="#000000" font-family="sans-serif" font-size="13" lengthAdjust="spacing" textLength="58" x="96.1862" y="100.0669">&lt;Name&gt;</text></g><!--link ReadText to Codes--><g id="link_ReadText_Codes"><path d="M49.2551,57.113 C40.3925,65.481 31.9495,75.648 27.1862,87 C19.2831,105.835 29.232,120.179 45.3617,133.414 " fill="none" id="ReadText-to-Codes" style="stroke:#181818;stroke-width:1.0;"/><polygon fill="#181818" points="50.0001,137.22,45.5798,128.4188,46.1348,134.0484,40.5052,134.6033,50.0001,137.22" style="stroke:#181818;stroke-width:1.0;"/><text fill="#000000" font-family="sans-serif" font-size="13" lengthAdjust="spacing" textLength="62" x="28.1862" y="100.0669">&lt;/Name&gt;</text></g><!--link ReadText to ReadText--><g id="link_ReadText_ReadText"><path d="M126.7348,20.495 C145.6078,19.628 161.6858,23.463 161.6858,32 C161.6858,40.537 151.6015,44.6473 132.7285,43.7803 " fill="none" id="ReadText-to-ReadText" style="stroke:#181818;stroke-width:1.0;"/><polygon fill="#181818" points="126.7348,43.505,135.5418,47.9138,131.7295,43.7345,135.9089,39.9222,126.7348,43.505" style="stroke:#181818;stroke-width:1.0;"/><text fill="#000000" font-family="sans-serif" font-size="13" lengthAdjust="spacing" textLength="45" x="167.6858" y="36.5669">onText</text></g><!--SRC=[YzQALT3LjLFmoImkARPIi77EJqa5i-sum1HO4YI8B8ai5wqL2vJHHz87LWsM2qfDJ0b9hIW1Al1Bp4r5beBPfuym4wPQ0KLdVXw8Hf64EKSVR2W0]--></g></svg>