<?xml version="1.0" encoding="us-ascii" standalone="no"?><svg xmlns="http://www.w3.org/2000/svg" xmlns:xlink="http://www.w3.org/1999/xlink" contentStyleType="text/css" height="444px" preserveAspectRatio="none" style="width:877px;height:444px;background:#FFFFFF;" version="1.1" viewBox="0 0 877 444" width="877px" zoomAndPan="magnify"><defs/><g><ellipse cx="821.5" cy="159" fill="#222222" rx="10" ry="10" style="stroke:#222222;stroke-width:1.0;"/><g id="Dataset"><rect fill="#F1F1F1" height="50" rx="12.5" ry="12.5" style="stroke:#181818;stroke-width:0.5;" width="77" x="618" y="261"/><line style="stroke:#181818;stroke-width:0.5;" x1="618" x2="695" y1="287.2969" y2="287.2969"/><text fill="#000000" font-family="sans-serif" font-size="14" lengthAdjust="spacing" textLength="57" x="628" y="278.9951">Dataset</text></g><ellipse cx="656.5" cy="413" fill="none" rx="11" ry="11" style="stroke:#222222;stroke-width:1.0;"/><ellipse cx="656.5" cy="413" fill="#222222" rx="6" ry="6" style="stroke:#222222;stroke-width:1.0;"/><g id="Gather"><rect fill="#F1F1F1" height="50" rx="12.5" ry="12.5" style="stroke:#181818;stroke-width:0.5;" width="70" x="302.5" y="134"/><line style="stroke:#181818;stroke-width:0.5;" x1="302.5" x2="372.5" y1="160.2969" y2="160.2969"/><text fill="#000000" font-family="sans-serif" font-size="14" lengthAdjust="spacing" textLength="50" x="312.5" y="151.9951">Gather</text></g><g id="SeriesKey"><rect fill="#F1F1F1" height="50" rx="12.5" ry="12.5" style="stroke:#181818;stroke-width:0.5;" width="91" x="292" y="7"/><line style="stroke:#181818;stroke-width:0.5;" x1="292" x2="383" y1="33.2969" y2="33.2969"/><text fill="#000000" font-family="sans-serif" font-size="14" lengthAdjust="spacing" textLength="71" x="302" y="24.9951">SeriesKey</text></g><g id="Attributes"><rect fill="#F1F1F1" height="50" rx="12.5" ry="12.5" style="stroke:#181818;stroke-width:0.5;" width="95" x="7" y="261"/><line style="stroke:#181818;stroke-width:0.5;" x1="7" x2="102" y1="287.2969" y2="287.2969"/><text fill="#000000" font-family="sans-serif" font-size="14" lengthAdjust="spacing" textLength="75" x="17" y="278.9951">Attributes</text></g><g id="Obs"><rect fill="#F1F1F1" height="50" rx="12.5" ry="12.5" style="stroke:#181818;stroke-width:0.5;" width="50" x="329.5" y="261"/><line style="stroke:#181818;stroke-width:0.5;" x1="329.5" x2="379.5" y1="287.2969" y2="287.2969"/><text fill="#000000" font-family="sans-serif" font-size="14" lengthAdjust="spacing" textLength="28" x="340.5" y="278.9951">Obs</text></g><g id="ReadText"><rect fill="#F1F1F1" height="50" rx="12.5" ry="12.5" style="stroke:#181818;stroke-width:0.5;" width="89" x="310" y="388"/><line style="stroke:#181818;stroke-width:0.5;" x1="310" x2="399" y1="414.2969" y2="414.2969"/><text fill="#000000" font-family="sans-serif" font-size="14" lengthAdjust="spacing" textLength="69" x="320" y="405.9951">ReadText</text></g><!--link *start* to Dataset--><g id="link_*start*_Dataset"><path d="M818.693,169.081 C813.684,183.909 801.875,213.426 782.5,231 C757.733,253.465 727.945,265.8096 700.922,273.9336 " fill="none" id="*start*-to-Dataset" style="stroke:#181818;stroke-width:1.0;"/><polygon fill="#181818" points="695.176,275.661,704.9465,276.9005,699.9643,274.2215,702.6433,269.2392,695.176,275.661" style="stroke:#181818;stroke-width:1.0;"/><text fill="#000000" font-family="sans-serif" font-size="13" lengthAdjust="spacing" textLength="71" x="798.5" y="227.0669">&lt;Dataset&gt;</text></g><!--link Dataset to *end*--><g id="link_Dataset_*end*"><path d="M656.5,311.101 C656.5,338.6277 656.5,376.3785 656.5,395.9557 " fill="none" id="Dataset-to-*end*" style="stroke:#181818;stroke-width:1.0;"/><polygon fill="#181818" points="656.5,401.9557,660.5,392.9557,656.5,396.9557,652.5,392.9557,656.5,401.9557" style="stroke:#181818;stroke-width:1.0;"/><text fill="#000000" font-family="sans-serif" font-size="13" lengthAdjust="spacing" textLength="75" x="657.5" y="354.0669">&lt;/Dataset&gt;</text></g><!--link Dataset to Gather--><g id="link_Dataset_Gather"><path d="M649.28,260.935 C643.295,245.165 633.188,225.426 617.5,214 C578.833,185.837 444.9596,169.9951 378.7246,163.6391 " fill="none" id="Dataset-to-Gather" style="stroke:#181818;stroke-width:1.0;"/><polygon fill="#181818" points="372.752,163.066,381.3288,167.9074,377.7291,163.5436,382.0929,159.944,372.752,163.066" style="stroke:#181818;stroke-width:1.0;"/><text fill="#000000" font-family="sans-serif" font-size="13" lengthAdjust="spacing" textLength="123" x="634.5" y="227.0669">&lt;Series&gt;, &#1057;&#1086;&#1079;&#1076;&#1072;&#1090;&#1100;</text></g><!--link Gather to Dataset--><g id="link_Gather_Dataset"><path d="M372.672,182.833 C397.717,198.25 432.629,218.071 465.5,231 C517.061,251.28 533.355,245.334 586.5,261 C596.728,264.015 602.0047,265.6568 612.1387,269.1218 " fill="none" id="Gather-to-Dataset" style="stroke:#181818;stroke-width:1.0;"/><polygon fill="#181818" points="617.816,271.063,610.5942,264.3664,613.0849,269.4454,608.0059,271.9361,617.816,271.063" style="stroke:#181818;stroke-width:1.0;"/><text fill="#000000" font-family="sans-serif" font-size="13" lengthAdjust="spacing" textLength="142" x="466.5" y="227.0669">&lt;/Series&gt;, &#1057;&#1086;&#1093;&#1088;&#1072;&#1085;&#1080;&#1090;&#1100;</text></g><!--link Gather to SeriesKey--><g id="link_Gather_SeriesKey"><path d="M351.981,133.852 C356.622,124.812 361.162,114.246 363.5,104 C367.151,88.003 363.8611,75.9938 356.6491,62.4748 " fill="none" id="Gather-to-SeriesKey" style="stroke:#181818;stroke-width:1.0;"/><polygon fill="#181818" points="353.825,57.181,354.5319,67.0045,356.1784,61.5925,361.5904,63.239,353.825,57.181" style="stroke:#181818;stroke-width:1.0;"/><text fill="#000000" font-family="sans-serif" font-size="13" lengthAdjust="spacing" textLength="83" x="366.5" y="100.0669">&lt;SeriesKey&gt;</text></g><!--link SeriesKey to Gather--><g id="link_SeriesKey_Gather"><path d="M295.788,57.2 C285.644,65.283 276.109,75.275 270.5,87 C260.26,108.404 276.1508,124.4829 297.2828,137.5129 " fill="none" id="SeriesKey-to-Gather" style="stroke:#181818;stroke-width:1.0;"/><polygon fill="#181818" points="302.39,140.662,296.8286,132.5336,298.134,138.0378,292.6298,139.3432,302.39,140.662" style="stroke:#181818;stroke-width:1.0;"/><text fill="#000000" font-family="sans-serif" font-size="13" lengthAdjust="spacing" textLength="87" x="271.5" y="100.0669">&lt;/SeriesKey&gt;</text></g><!--link Gather to Attributes--><g id="link_Gather_Attributes"><path d="M302.374,162.013 C236.158,166.569 96.6256,180.045 64.5,214 C52.865,226.298 50.5387,239.5715 51.1311,254.9345 " fill="none" id="Gather-to-Attributes" style="stroke:#181818;stroke-width:1.0;"/><polygon fill="#181818" points="51.3623,260.93,55.0125,251.7826,51.1696,255.9337,47.0185,252.0908,51.3623,260.93" style="stroke:#181818;stroke-width:1.0;"/><text fill="#000000" font-family="sans-serif" font-size="13" lengthAdjust="spacing" textLength="83" x="65.5" y="227.0669">&lt;Attributes&gt;</text></g><!--link Attributes to Gather--><g id="link_Attributes_Gather"><path d="M97.6341,260.896 C124.28,246.447 159.402,228.188 191.5,214 C228.577,197.611 266.6524,183.8283 296.5284,173.6183 " fill="none" id="Attributes-to-Gather" style="stroke:#181818;stroke-width:1.0;"/><polygon fill="#181818" points="302.206,171.678,292.3961,170.8034,297.4747,173.2949,294.9831,178.3735,302.206,171.678" style="stroke:#181818;stroke-width:1.0;"/><text fill="#000000" font-family="sans-serif" font-size="13" lengthAdjust="spacing" textLength="87" x="192.5" y="227.0669">&lt;/Attributes&gt;</text></g><!--link Gather to Obs--><g id="link_Gather_Obs"><path d="M306.42,184.227 C293.389,197.476 282.838,214.511 290.5,231 C298.525,248.271 310.0686,258.7321 324.3376,268.0271 " fill="none" id="Gather-to-Obs" style="stroke:#181818;stroke-width:1.0;"/><polygon fill="#181818" points="329.365,271.302,324.0072,263.038,325.1755,268.5729,319.6406,269.7412,329.365,271.302" style="stroke:#181818;stroke-width:1.0;"/><text fill="#000000" font-family="sans-serif" font-size="13" lengthAdjust="spacing" textLength="45" x="291.5" y="227.0669">&lt;Obs&gt;</text></g><!--link Obs to Gather--><g id="link_Obs_Gather"><path d="M351.232,260.973 C348.225,238.861 344.5965,212.1813 341.5865,190.0463 " fill="none" id="Obs-to-Gather" style="stroke:#181818;stroke-width:1.0;"/><polygon fill="#181818" points="340.778,184.101,338.0272,193.5579,341.4517,189.0554,345.9542,192.4799,340.778,184.101" style="stroke:#181818;stroke-width:1.0;"/><text fill="#000000" font-family="sans-serif" font-size="13" lengthAdjust="spacing" textLength="49" x="348.5" y="227.0669">&lt;/Obs&gt;</text></g><!--link SeriesKey to SeriesKey--><g id="link_SeriesKey_SeriesKey"><path d="M383.016,20.477 C401.95,19.682 418,23.523 418,32 C418,40.477 407.9447,44.5697 389.0107,43.7747 " fill="none" id="SeriesKey-to-SeriesKey" style="stroke:#181818;stroke-width:1.0;"/><polygon fill="#181818" points="383.016,43.523,391.8403,47.897,388.0116,43.7328,392.1759,39.9041,383.016,43.523" style="stroke:#181818;stroke-width:1.0;"/><text fill="#000000" font-family="sans-serif" font-size="13" lengthAdjust="spacing" textLength="135" x="424" y="36.5669">&lt;Value&gt;, &#1047;&#1072;&#1087;&#1086;&#1084;&#1085;&#1080;&#1090;&#1100;</text></g><!--link Attributes to Attributes--><g id="link_Attributes_Attributes"><path d="M102.3896,274.432 C121.248,273.849 137,277.705 137,286 C137,294.295 127.2451,298.3364 108.3867,297.7534 " fill="none" id="Attributes-to-Attributes" style="stroke:#181818;stroke-width:1.0;"/><polygon fill="#181818" points="102.3896,297.568,111.2617,301.8442,107.3872,297.7225,111.5089,293.848,102.3896,297.568" style="stroke:#181818;stroke-width:1.0;"/><text fill="#000000" font-family="sans-serif" font-size="13" lengthAdjust="spacing" textLength="135" x="143" y="290.5669">&lt;Value&gt;, &#1047;&#1072;&#1087;&#1086;&#1084;&#1085;&#1080;&#1090;&#1100;</text></g><!--link Obs to Obs--><g id="link_Obs_Obs"><path d="M379.778,275.51 C397.273,272.332 414.5,275.828 414.5,286 C414.5,296.172 403.1764,300.7404 385.6814,297.5624 " fill="none" id="Obs-to-Obs" style="stroke:#181818;stroke-width:1.0;"/><polygon fill="#181818" points="379.778,296.49,387.9182,302.0341,384.6975,297.3836,389.348,294.1629,379.778,296.49" style="stroke:#181818;stroke-width:1.0;"/><text fill="#000000" font-family="sans-serif" font-size="13" lengthAdjust="spacing" textLength="160" x="420.5" y="290.5669">&lt;ObsValue&gt;, &#1047;&#1072;&#1087;&#1086;&#1084;&#1085;&#1080;&#1090;&#1100;</text></g><!--link Obs to ReadText--><g id="link_Obs_ReadText"><path d="M329.265,306.889 C319.58,316.104 309.628,327.915 304.5,341 C297.844,357.9847 304.365,370.5754 317.614,383.5609 " fill="none" id="Obs-to-ReadText" style="stroke:#181818;stroke-width:1.0;"/><polygon fill="#181818" points="321.899,387.7607,318.2713,378.6043,318.3281,384.2609,312.6716,384.3177,321.899,387.7607" style="stroke:#181818;stroke-width:1.0;"/><text fill="#000000" font-family="sans-serif" font-size="13" lengthAdjust="spacing" textLength="52" x="305.5" y="354.0669">&lt;Time&gt;</text></g><!--link ReadText to Obs--><g id="link_ReadText_Obs"><path d="M359.482,387.7267 C361.728,374.0305 363.648,356.5873 362.5,341 C361.776,331.17 361.2587,326.3411 359.7847,317.0351 " fill="none" id="ReadText-to-Obs" style="stroke:#181818;stroke-width:1.0;"/><polygon fill="#181818" points="358.846,311.109,356.3032,320.624,359.6282,316.0474,364.2047,319.3724,358.846,311.109" style="stroke:#181818;stroke-width:1.0;"/><text fill="#000000" font-family="sans-serif" font-size="13" lengthAdjust="spacing" textLength="42" x="364.5" y="354.0669">/Name</text></g><!--link ReadText to ReadText--><g id="link_ReadText_ReadText"><path d="M399.049,401.4949 C417.922,400.6279 434,404.4629 434,413 C434,421.5371 423.9157,425.6474 405.0427,424.7804 " fill="none" id="ReadText-to-ReadText" style="stroke:#181818;stroke-width:1.0;"/><polygon fill="#181818" points="399.049,424.5051,407.856,428.9139,404.0437,424.7346,408.2231,420.9223,399.049,424.5051" style="stroke:#181818;stroke-width:1.0;"/><text fill="#000000" font-family="sans-serif" font-size="13" lengthAdjust="spacing" textLength="45" x="440" y="417.5669">onText</text></g><!--SRC=[YzQALT3LjLDmIIn9B4ujiLAmWRBikA0Ci7IqLYnGIX-hd7jYIKPg4L0wEBKeCxNOJaVXmi8B-ovilx3bmeQBJHTxk20Am6eXIhnJA-7AWMmxP1ME9IL5cKcb9Qd5G2K83eeQ_oIG99144KLuGH_59HTRBpPSs71XxuKTODV0hLL0SqzOOavfAaZFTA3g_K0VxC6k1sebmXwm5n1ELK3t1Hw3KNKXcOpiSw175P1zZSSygDAWrCIKaDGAK5Y4PEQcmes0HvK-EF1Woi31Xz2JdmUYKMN1bklx9UQc0W00]--></g></svg>