<?xml version="1.0" encoding="us-ascii" standalone="no"?><svg xmlns="http://www.w3.org/2000/svg" xmlns:xlink="http://www.w3.org/1999/xlink" contentStyleType="text/css" height="444px" preserveAspectRatio="none" style="width:812px;height:444px;background:#FFFFFF;" version="1.1" viewBox="0 0 812 444" width="812px" zoomAndPan="magnify"><defs/><g><ellipse cx="760.5" cy="159" fill="#222222" rx="10" ry="10" style="stroke:#222222;stroke-width:1.0;"/><g id="Dataset"><rect fill="#F1F1F1" height="50" rx="12.5" ry="12.5" style="stroke:#181818;stroke-width:0.5;" width="77" x="657" y="261"/><line style="stroke:#181818;stroke-width:0.5;" x1="657" x2="734" y1="287.2969" y2="287.2969"/><text fill="#000000" font-family="sans-serif" font-size="14" lengthAdjust="spacing" textLength="57" x="667" y="278.9951">Dataset</text></g><ellipse cx="695.5" cy="413" fill="none" rx="11" ry="11" style="stroke:#222222;stroke-width:1.0;"/><ellipse cx="695.5" cy="413" fill="#222222" rx="6" ry="6" style="stroke:#222222;stroke-width:1.0;"/><g id="Gather"><rect fill="#F1F1F1" height="50" rx="12.5" ry="12.5" style="stroke:#181818;stroke-width:0.5;" width="70" x="289.5" y="134"/><line style="stroke:#181818;stroke-width:0.5;" x1="289.5" x2="359.5" y1="160.2969" y2="160.2969"/><text fill="#000000" font-family="sans-serif" font-size="14" lengthAdjust="spacing" textLength="50" x="299.5" y="151.9951">Gather</text></g><g id="SeriesKey"><rect fill="#F1F1F1" height="50" rx="12.5" ry="12.5" style="stroke:#181818;stroke-width:0.5;" width="91" x="279" y="7"/><line style="stroke:#181818;stroke-width:0.5;" x1="279" x2="370" y1="33.2969" y2="33.2969"/><text fill="#000000" font-family="sans-serif" font-size="14" lengthAdjust="spacing" textLength="71" x="289" y="24.9951">SeriesKey</text></g><g id="Attributes"><rect fill="#F1F1F1" height="50" rx="12.5" ry="12.5" style="stroke:#181818;stroke-width:0.5;" width="95" x="7" y="261"/><line style="stroke:#181818;stroke-width:0.5;" x1="7" x2="102" y1="287.2969" y2="287.2969"/><text fill="#000000" font-family="sans-serif" font-size="14" lengthAdjust="spacing" textLength="75" x="17" y="278.9951">Attributes</text></g><g id="Obs"><rect fill="#F1F1F1" height="50" rx="12.5" ry="12.5" style="stroke:#181818;stroke-width:0.5;" width="50" x="302.5" y="261"/><line style="stroke:#181818;stroke-width:0.5;" x1="302.5" x2="352.5" y1="287.2969" y2="287.2969"/><text fill="#000000" font-family="sans-serif" font-size="14" lengthAdjust="spacing" textLength="28" x="313.5" y="278.9951">Obs</text></g><g id="ReadText"><rect fill="#F1F1F1" height="50" rx="12.5" ry="12.5" style="stroke:#181818;stroke-width:0.5;" width="89" x="283" y="388"/><line style="stroke:#181818;stroke-width:0.5;" x1="283" x2="372" y1="414.2969" y2="414.2969"/><text fill="#000000" font-family="sans-serif" font-size="14" lengthAdjust="spacing" textLength="69" x="293" y="405.9951">ReadText</text></g><!--link *start* to Dataset--><g id="link_*start*_Dataset"><path d="M756.235,168.202 C746.604,186.723 725.6291,227.0587 710.8441,255.4917 " fill="none" id="*start*-to-Dataset" style="stroke:#181818;stroke-width:1.0;"/><polygon fill="#181818" points="708.076,260.815,715.777,254.6754,710.3827,256.3789,708.6793,250.9846,708.076,260.815" style="stroke:#181818;stroke-width:1.0;"/><text fill="#000000" font-family="sans-serif" font-size="13" lengthAdjust="spacing" textLength="71" x="733.5" y="227.0669">&lt;Dataset&gt;</text></g><!--link Dataset to *end*--><g id="link_Dataset_*end*"><path d="M695.5,311.101 C695.5,338.6277 695.5,376.3785 695.5,395.9557 " fill="none" id="Dataset-to-*end*" style="stroke:#181818;stroke-width:1.0;"/><polygon fill="#181818" points="695.5,401.9557,699.5,392.9557,695.5,396.9557,691.5,392.9557,695.5,401.9557" style="stroke:#181818;stroke-width:1.0;"/><text fill="#000000" font-family="sans-serif" font-size="13" lengthAdjust="spacing" textLength="75" x="696.5" y="354.0669">&lt;/Dataset&gt;</text></g><!--link Dataset to Gather--><g id="link_Dataset_Gather"><path d="M656.927,265.006 C617.635,244.684 561.733,215.913 556.5,214 C488.917,189.295 411.944,174.2214 365.776,166.4624 " fill="none" id="Dataset-to-Gather" style="stroke:#181818;stroke-width:1.0;"/><polygon fill="#181818" points="359.859,165.468,368.0716,170.9043,364.7899,166.2967,369.3975,163.0149,359.859,165.468" style="stroke:#181818;stroke-width:1.0;"/><text fill="#000000" font-family="sans-serif" font-size="13" lengthAdjust="spacing" textLength="123" x="591.5" y="227.0669">&lt;Series&gt;, &#1057;&#1086;&#1079;&#1076;&#1072;&#1090;&#1100;</text></g><!--link Gather to Dataset--><g id="link_Gather_Dataset"><path d="M344.632,184.241 C359.436,200.304 381.002,220.317 404.5,231 C499.95,274.393 537.255,233.739 638.5,261 C644.513,262.619 645.1255,262.5895 651.1415,264.8955 " fill="none" id="Gather-to-Dataset" style="stroke:#181818;stroke-width:1.0;"/><polygon fill="#181818" points="656.744,267.043,649.7719,260.0867,652.0752,265.2534,646.9086,267.5568,656.744,267.043" style="stroke:#181818;stroke-width:1.0;"/><text fill="#000000" font-family="sans-serif" font-size="13" lengthAdjust="spacing" textLength="142" x="405.5" y="227.0669">&lt;/Series&gt;, &#1057;&#1086;&#1093;&#1088;&#1072;&#1085;&#1080;&#1090;&#1100;</text></g><!--link Gather to SeriesKey--><g id="link_Gather_SeriesKey"><path d="M338.981,133.852 C343.622,124.812 348.162,114.246 350.5,104 C354.151,88.003 350.8611,75.9938 343.6491,62.4748 " fill="none" id="Gather-to-SeriesKey" style="stroke:#181818;stroke-width:1.0;"/><polygon fill="#181818" points="340.825,57.181,341.5319,67.0045,343.1784,61.5925,348.5904,63.239,340.825,57.181" style="stroke:#181818;stroke-width:1.0;"/><text fill="#000000" font-family="sans-serif" font-size="13" lengthAdjust="spacing" textLength="83" x="353.5" y="100.0669">&lt;SeriesKey&gt;</text></g><!--link SeriesKey to Gather--><g id="link_SeriesKey_Gather"><path d="M279.124,57.244 C262.202,69.745 248.943,86.112 257.5,104 C264.334,118.285 272.0951,126.5376 284.5861,135.3596 " fill="none" id="SeriesKey-to-Gather" style="stroke:#181818;stroke-width:1.0;"/><polygon fill="#181818" points="289.487,138.821,284.4432,130.3617,285.4029,135.9365,279.8281,136.8962,289.487,138.821" style="stroke:#181818;stroke-width:1.0;"/><text fill="#000000" font-family="sans-serif" font-size="13" lengthAdjust="spacing" textLength="87" x="258.5" y="100.0669">&lt;/SeriesKey&gt;</text></g><!--link Gather to Attributes--><g id="link_Gather_Attributes"><path d="M289.449,163.613 C229.646,170.435 111.357,187.003 80.5,214 C66.9652,225.842 61.6471,239.4595 58.5338,255.0305 " fill="none" id="Gather-to-Attributes" style="stroke:#181818;stroke-width:1.0;"/><polygon fill="#181818" points="57.3574,260.914,63.0443,252.8729,58.3377,256.011,55.1996,251.3044,57.3574,260.914" style="stroke:#181818;stroke-width:1.0;"/><text fill="#000000" font-family="sans-serif" font-size="13" lengthAdjust="spacing" textLength="83" x="81.5" y="227.0669">&lt;Attributes&gt;</text></g><!--link Attributes to Gather--><g id="link_Attributes_Gather"><path d="M102.1933,262.92 C155.834,238.086 236.2342,200.8638 284.0342,178.7338 " fill="none" id="Attributes-to-Gather" style="stroke:#181818;stroke-width:1.0;"/><polygon fill="#181818" points="289.479,176.213,279.6313,176.3643,284.9417,178.3136,282.9923,183.624,289.479,176.213" style="stroke:#181818;stroke-width:1.0;"/><text fill="#000000" font-family="sans-serif" font-size="13" lengthAdjust="spacing" textLength="87" x="207.5" y="227.0669">&lt;/Attributes&gt;</text></g><!--link Gather to Obs--><g id="link_Gather_Obs"><path d="M322.3,184.324 C321.354,198.037 320.64,215.479 321.5,231 C322.042,240.795 322.4263,245.5859 323.5323,254.8969 " fill="none" id="Gather-to-Obs" style="stroke:#181818;stroke-width:1.0;"/><polygon fill="#181818" points="324.24,260.855,327.1505,251.446,323.6502,255.8899,319.2063,252.3896,324.24,260.855" style="stroke:#181818;stroke-width:1.0;"/><text fill="#000000" font-family="sans-serif" font-size="13" lengthAdjust="spacing" textLength="45" x="322.5" y="227.0669">&lt;Obs&gt;</text></g><!--link SeriesKey to SeriesKey--><g id="link_SeriesKey_SeriesKey"><path d="M370.016,20.477 C388.95,19.682 405,23.523 405,32 C405,40.477 394.9447,44.5697 376.0107,43.7747 " fill="none" id="SeriesKey-to-SeriesKey" style="stroke:#181818;stroke-width:1.0;"/><polygon fill="#181818" points="370.016,43.523,378.8403,47.897,375.0116,43.7328,379.1759,39.9041,370.016,43.523" style="stroke:#181818;stroke-width:1.0;"/><text fill="#000000" font-family="sans-serif" font-size="13" lengthAdjust="spacing" textLength="135" x="411" y="36.5669">&lt;Value&gt;, &#1047;&#1072;&#1087;&#1086;&#1084;&#1085;&#1080;&#1090;&#1100;</text></g><!--link Attributes to Attributes--><g id="link_Attributes_Attributes"><path d="M102.3896,274.432 C121.248,273.849 137,277.705 137,286 C137,294.295 127.2451,298.3364 108.3867,297.7534 " fill="none" id="Attributes-to-Attributes" style="stroke:#181818;stroke-width:1.0;"/><polygon fill="#181818" points="102.3896,297.568,111.2617,301.8442,107.3872,297.7225,111.5089,293.848,102.3896,297.568" style="stroke:#181818;stroke-width:1.0;"/><text fill="#000000" font-family="sans-serif" font-size="13" lengthAdjust="spacing" textLength="135" x="143" y="290.5669">&lt;Value&gt;, &#1047;&#1072;&#1087;&#1086;&#1084;&#1085;&#1080;&#1090;&#1100;</text></g><!--link Obs to Obs--><g id="link_Obs_Obs"><path d="M352.778,280.755 C370.273,279.166 387.5,280.914 387.5,286 C387.5,291.086 376.2484,293.3767 358.7534,291.7877 " fill="none" id="Obs-to-Obs" style="stroke:#181818;stroke-width:1.0;"/><polygon fill="#181818" points="352.778,291.245,361.3793,296.0427,357.7575,291.6973,362.1029,288.0755,352.778,291.245" style="stroke:#181818;stroke-width:1.0;"/><text fill="#000000" font-family="sans-serif" font-size="13" lengthAdjust="spacing" textLength="160" x="393.5" y="290.5669">&lt;ObsValue&gt;, &#1047;&#1072;&#1087;&#1086;&#1084;&#1085;&#1080;&#1090;&#1100;</text></g><!--link Obs to Obs--><g id="link_Obs_Obs"><path d="M352.849,279.932 C416.219,270.869 559.5,272.892 559.5,286 C559.5,299.108 422.1586,301.9805 358.7886,292.9175 " fill="none" id="Obs-to-Obs-1" style="stroke:#181818;stroke-width:1.0;"/><polygon fill="#181818" points="352.849,292.068,361.192,297.3019,357.7986,292.7759,362.3247,289.3825,352.849,292.068" style="stroke:#181818;stroke-width:1.0;"/><text fill="#000000" font-family="sans-serif" font-size="13" lengthAdjust="spacing" textLength="49" x="565.5" y="290.5669">&lt;/Obs&gt;</text></g><!--link Obs to ReadText--><g id="link_Obs_ReadText"><path d="M302.265,306.889 C292.58,316.104 282.628,327.915 277.5,341 C270.844,357.9847 277.365,370.5754 290.614,383.5609 " fill="none" id="Obs-to-ReadText" style="stroke:#181818;stroke-width:1.0;"/><polygon fill="#181818" points="294.899,387.7607,291.2713,378.6043,291.3281,384.2609,285.6716,384.3177,294.899,387.7607" style="stroke:#181818;stroke-width:1.0;"/><text fill="#000000" font-family="sans-serif" font-size="13" lengthAdjust="spacing" textLength="52" x="278.5" y="354.0669">&lt;Time&gt;</text></g><!--link ReadText to Obs--><g id="link_ReadText_Obs"><path d="M332.482,387.7267 C334.728,374.0305 336.648,356.5873 335.5,341 C334.776,331.17 334.2587,326.3411 332.7847,317.0351 " fill="none" id="ReadText-to-Obs" style="stroke:#181818;stroke-width:1.0;"/><polygon fill="#181818" points="331.846,311.109,329.3032,320.624,332.6282,316.0474,337.2047,319.3724,331.846,311.109" style="stroke:#181818;stroke-width:1.0;"/><text fill="#000000" font-family="sans-serif" font-size="13" lengthAdjust="spacing" textLength="42" x="337.5" y="354.0669">/Name</text></g><!--link ReadText to ReadText--><g id="link_ReadText_ReadText"><path d="M372.049,401.4949 C390.922,400.6279 407,404.4629 407,413 C407,421.5371 396.9157,425.6474 378.0427,424.7804 " fill="none" id="ReadText-to-ReadText" style="stroke:#181818;stroke-width:1.0;"/><polygon fill="#181818" points="372.049,424.5051,380.856,428.9139,377.0437,424.7346,381.2231,420.9223,372.049,424.5051" style="stroke:#181818;stroke-width:1.0;"/><text fill="#000000" font-family="sans-serif" font-size="13" lengthAdjust="spacing" textLength="45" x="413" y="417.5669">onText</text></g><!--SRC=[YzQALT3LjLDmIIn9B4ujiLAmWRBikA0Ci7IqLYnGIX-hd7jYIKPg4L0wEBKeCxNOJaVXmi8B-ovilx3bmeQBJHTxk20Am6eXIhnJA-7AWMmxP1ME9IL5cKcb9Qd5G2K83eeQ_oIG99144KLuGH_59HTRBpPSs71XxuKTODV0hLL0SqzOOavfAaZFTA3g_K0VxC6k1sebmXwm5n1ELK3t1Hw3KNKXcOpiSw175P1zZSSygDAWrCIKaDGAK5Y4PEQceXcX3muvc1fms24qvEU1Q5HPi3PzlyJSL000]--></g></svg>